<svg xmlns="http://www.w3.org/2000/svg" xmlns:xlink="http://www.w3.org/1999/xlink" viewBox="0 0 44.34 44.1"><defs><style>.cls-1{fill:url(#linear-gradient);}</style><linearGradient id="linear-gradient" x1="22.17" x2="22.17" y2="44.1" gradientUnits="userSpaceOnUse"><stop offset="0.25" stop-color="#f6ccec"/><stop offset="0.78" stop-color="#c9a7eb"/><stop offset="1" stop-color="#b48aff"/></linearGradient></defs><g id="Layer_2" data-name="Layer 2"><g id="Layer_1-2" data-name="Layer 1"><path class="cls-1" d="M40.66,12.06,28.29,2.16a9.75,9.75,0,0,0-12.24,0L3.68,12.06A9.73,9.73,0,0,0,0,19.71V34.3a9.8,9.8,0,0,0,9.8,9.8H34.54a9.8,9.8,0,0,0,9.8-9.8V19.71A9.73,9.73,0,0,0,40.66,12.06ZM29.48,37.45H14.72a3.22,3.22,0,1,1,0-6.43H29.48a3.22,3.22,0,1,1,0,6.43Z"/></g></g></svg>