<svg id="Layer_1" data-name="Layer 1" xmlns="http://www.w3.org/2000/svg" xmlns:xlink="http://www.w3.org/1999/xlink" viewBox="0 0 576.05 410.2"><defs><style>.cls-1{fill:#ca9aef;}.cls-2{fill:url(#linear-gradient);}</style><linearGradient id="linear-gradient" x1="287.83" y1="245.87" x2="287.83" y2="-206.07" gradientUnits="userSpaceOnUse"><stop offset="0" stop-color="#e0b0ff"/><stop offset="0.47" stop-color="#b58bff"/><stop offset="1" stop-color="#b48aff"/></linearGradient></defs><path class="cls-1" d="M542.46,243A132.27,132.27,0,0,1,576,331.56c0,71.66-56,129.94-124.95,129.94H124.9C56,461.5,0,403.22,0,331.56A133.06,133.06,0,0,1,30,247.05a124.34,124.34,0,0,1,66.36-42c4.39-77.63,32.73-139.39,108.41-139.39,40.9,0,78.88,17.75,105.89,49.09a121.21,121.21,0,0,1,78.9-29.19c32.93,0,64,13.18,87.47,37.16,21.2,21.62-10.53,49.86-7.74,80.3A123,123,0,0,1,542.46,243Z" transform="translate(0.05 -51.3)"/><path class="cls-2" d="M472.81,92.82a139.56,139.56,0,0,1,0,197.59L333,422.31c-25.75,24.18-65.69,24.18-90.91,0L102.85,290.94a140.37,140.37,0,0,1-41-99.33c0-77.25,62.55-140.31,139.8-140.31,26.79,0,56.22,13.14,86.17,39.42C345.64,44.47,425,44.47,472.81,92.82Z" transform="translate(0.05 -51.3)"/></svg>