<svg xmlns="http://www.w3.org/2000/svg" xmlns:xlink="http://www.w3.org/1999/xlink" viewBox="0 0 182.56 139.63"><defs><style>.cls-1{fill:url(#linear-gradient);}.cls-2{fill:url(#linear-gradient-2);}.cls-3{fill:url(#linear-gradient-3);}.cls-4{fill:url(#linear-gradient-4);}.cls-5{fill:url(#linear-gradient-5);}.cls-6{fill:url(#linear-gradient-6);}</style><linearGradient id="linear-gradient" y1="98.97" x2="182.56" y2="98.97" gradientUnits="userSpaceOnUse"><stop offset="0" stop-color="#9795ef"/><stop offset="1" stop-color="#f9c5d1"/></linearGradient><linearGradient id="linear-gradient-2" x1="148.69" y1="51.86" x2="153.3" y2="51.86" xlink:href="#linear-gradient"/><linearGradient id="linear-gradient-3" x1="149.19" y1="38.15" x2="153.53" y2="38.15" xlink:href="#linear-gradient"/><linearGradient id="linear-gradient-4" x1="23.28" y1="54.2" x2="25.56" y2="54.2" xlink:href="#linear-gradient"/><linearGradient id="linear-gradient-5" x1="98.81" y1="8.77" x2="98.81" y2="110.97" gradientUnits="userSpaceOnUse"><stop offset="0.36" stop-color="#d0adec"/><stop offset="1" stop-color="#f9c5d1"/></linearGradient><linearGradient id="linear-gradient-6" x1="91.38" y1="139.63" x2="91.38" y2="-0.34" gradientUnits="userSpaceOnUse"><stop offset="0" stop-color="#ffdee5"/><stop offset="0.77" stop-color="#f8bddb"/></linearGradient></defs><g id="Layer_2" data-name="Layer 2"><g id="Layer_1-2" data-name="Layer 1"><path class="cls-1" d="M171.93,70.19a41.91,41.91,0,0,1,10.63,28.07c0,22.7-17.76,41.18-39.6,41.18H39.6C17.76,139.44,0,121,0,98.26A42.17,42.17,0,0,1,9.52,71.47c5.5-6.66,7.78-10,15.93-11.94q0-.37,0-.72c2.08,2.69,5.91,4.92,12.58,4.92,13,0,44.59,47.42,53.15,57.35,7.05-6,49.29-57.35,58.5-57.35,2.41,0,3.39-2.09,3.56-5.23A39.21,39.21,0,0,1,171.93,70.19Z"/><path class="cls-2" d="M151.61,45.21c1,4.72,1.86,9.69,1.66,13.29a38.4,38.4,0,0,0-4.53-1C148.35,53.24,150.11,49.09,151.61,45.21Z"/><path class="cls-3" d="M151.2,32.08c3.74,3.8,2.28,8.26.41,13.13C149.74,36.28,147.46,28.26,151.2,32.08Z"/><path class="cls-4" d="M25.48,58.81c-5.33-6.87.8-16.77,0,0Z"/><ellipse class="cls-5" cx="98.81" cy="59.87" rx="44.76" ry="51.1"/><path class="cls-6" d="M157.75,14.9h0C146.09,3.11,129.21-.66,113.07,3.33a24.83,24.83,0,0,0-8.4,3.92c-5,3.6-14,10.72-13.17,25.79l.19,8.79A1.37,1.37,0,0,0,93.9,42.9L105,34.49a9.18,9.18,0,0,1,7-1.82,9.05,9.05,0,0,1,6.3,3.66l.1.14a9,9,0,0,1,1.82,7.05,9.14,9.14,0,0,1-3.66,6.29l-15.29,12a1.38,1.38,0,0,0-.06,2.12l15.48,13.76a9.18,9.18,0,0,1,3.16,6.55,9.06,9.06,0,0,1-2.37,6.89l-.12.13A9.57,9.57,0,0,1,104,92.1L93.32,83A1.38,1.38,0,0,0,91,84l-.14,2.76A11.52,11.52,0,0,1,88,94.42a9,9,0,0,1-6.74,2.73h-.18a9,9,0,0,1-6.68-2.88,9.16,9.16,0,0,1-2.73-6.75l0-2.4.51-46.93.06-5.36c.52-9.38,3.56-11.68,5-13.88S83,13.79,86,12.31a1.39,1.39,0,0,0,.2-2.37C77.23,3.32,68.51,0,60.46,0A50.4,50.4,0,0,0,25,86l50,47.14a23.69,23.69,0,0,0,32.62,0l50.16-47.33A50.06,50.06,0,0,0,157.75,14.9Z"/></g></g></svg>