<svg xmlns="http://www.w3.org/2000/svg" xmlns:xlink="http://www.w3.org/1999/xlink" viewBox="0 0 50.91 50.91"><defs><style>.cls-1{fill:url(#linear-gradient);}.cls-2{fill:#e0dded;}</style><linearGradient id="linear-gradient" x1="2.09" y1="25.54" x2="48.7" y2="25.54" gradientUnits="userSpaceOnUse"><stop offset="0" stop-color="#f9c5d1"/><stop offset="0" stop-color="#9795ef"/><stop offset="0.97" stop-color="#736ad1"/><stop offset="1" stop-color="#9795ef"/></linearGradient></defs><g id="Layer_2" data-name="Layer 2"><g id="Layer_1-2" data-name="Layer 1"><path class="cls-1" d="M2.09,25.54A23.3,23.3,0,1,1,8.91,42,23.28,23.28,0,0,1,2.09,25.54Z"/><path class="cls-2" d="M23.33,17a2.12,2.12,0,1,1-2.12-2.12A2.12,2.12,0,0,1,23.33,17"/><path class="cls-2" d="M31.82,33.94a2.12,2.12,0,1,1-2.12-2.12,2.12,2.12,0,0,1,2.12,2.12"/><path class="cls-2" d="M25.46,0a25.47,25.47,0,1,0,18,7.46A25.41,25.41,0,0,0,25.46,0ZM38.18,36.06H35.67a6.33,6.33,0,0,1-12,0h-11a2.12,2.12,0,1,1,0-4.24h11a6.32,6.32,0,0,1,12,0h2.51a2.12,2.12,0,1,1,0,4.24Zm0-17h-11a6.32,6.32,0,0,1-12,0H12.73a2.12,2.12,0,1,1,0-4.24h2.51a6.32,6.32,0,0,1,12,0h11a2.12,2.12,0,1,1,0,4.24Z"/></g></g></svg>