<svg xmlns="http://www.w3.org/2000/svg" xmlns:xlink="http://www.w3.org/1999/xlink" viewBox="0 0 52.74 43.35"><defs><style>.cls-1{fill:url(#linear-gradient);}.cls-2{fill:url(#linear-gradient-2);}.cls-3{fill:url(#linear-gradient-3);}.cls-4{fill:url(#linear-gradient-4);}.cls-5{fill:url(#linear-gradient-5);}</style><linearGradient id="linear-gradient" y1="31.66" x2="52.74" y2="31.66" gradientUnits="userSpaceOnUse"><stop offset="0" stop-color="#9795ef"/><stop offset="1" stop-color="#f9c5d1"/></linearGradient><linearGradient id="linear-gradient-2" x1="42.95" y1="18.05" x2="44.28" y2="18.05" xlink:href="#linear-gradient"/><linearGradient id="linear-gradient-3" x1="43.1" y1="14.09" x2="44.35" y2="14.09" xlink:href="#linear-gradient"/><linearGradient id="linear-gradient-4" x1="6.72" y1="18.72" x2="7.38" y2="18.72" xlink:href="#linear-gradient"/><linearGradient id="linear-gradient-5" x1="26.43" y1="21.67" x2="26.43" y2="-28.67" gradientUnits="userSpaceOnUse"><stop offset="0" stop-color="#f6ccec"/><stop offset="0.47" stop-color="#c9a7eb"/><stop offset="1" stop-color="#b48aff"/></linearGradient></defs><g id="Layer_2" data-name="Layer 2"><g id="Layer_1-2" data-name="Layer 1"><path class="cls-1" d="M49.67,23.34a12.12,12.12,0,0,1,3.07,8.11A11.69,11.69,0,0,1,41.3,43.35H11.44A11.69,11.69,0,0,1,0,31.45a12.2,12.2,0,0,1,2.75-7.74c1.59-1.92,2.25-2.88,4.6-3.45a1.48,1.48,0,0,0,0-.21A4.31,4.31,0,0,0,11,21.48c3.74,0,12.88,13.69,15.35,16.56,2-1.73,14.24-16.56,16.9-16.56.7,0,1-.61,1-1.52A11.46,11.46,0,0,1,49.67,23.34Z"/><path class="cls-2" d="M43.8,16.13A16.66,16.66,0,0,1,44.28,20,11.74,11.74,0,0,0,43,19.68,8.15,8.15,0,0,1,43.8,16.13Z"/><path class="cls-3" d="M43.68,12.33c1.08,1.1.66,2.39.12,3.8C43.26,13.55,42.6,11.23,43.68,12.33Z"/><path class="cls-4" d="M7.36,20.05c-1.54-2,.23-4.84,0,0Z"/><path class="cls-5" d="M47.06,4.62C41.73-.76,32.88-.76,26.43,4.39,23.09,1.46,19.81,0,16.82,0a15.64,15.64,0,0,0-11,26.69L21.33,41.32a7.36,7.36,0,0,0,10.14,0L47.06,26.63A15.52,15.52,0,0,0,47.06,4.62ZM40.27,18.14l-12.38,11a3.27,3.27,0,0,1-4.63,0L15.14,21h0a3.28,3.28,0,0,1,4.64-4.64l5.95,5,9.42-7.33a3.26,3.26,0,1,1,5.12,4.05Z"/></g></g></svg>