<svg xmlns="http://www.w3.org/2000/svg" xmlns:xlink="http://www.w3.org/1999/xlink" viewBox="0 0 50.28 50.28"><defs><style>.cls-1{fill:#fff;}.cls-2{fill:url(#linear-gradient);}</style><linearGradient id="linear-gradient" x1="10.59" y1="25.3" x2="39.8" y2="25.3" gradientUnits="userSpaceOnUse"><stop offset="0" stop-color="#f9c5d1"/><stop offset="0" stop-color="#9795ef"/><stop offset="0.97" stop-color="#736ad1"/><stop offset="1" stop-color="#9795ef"/></linearGradient></defs><g id="Layer_2" data-name="Layer 2"><g id="Layer_1-2" data-name="Layer 1"><path class="cls-1" d="M0,25.14A25.13,25.13,0,1,1,7.36,42.92,25.17,25.17,0,0,1,0,25.14Z"/><path class="cls-2" d="M38.71,11.78a3.71,3.71,0,0,0-5.25,0l-.74.74a.24.24,0,0,0,0,.33l4.93,4.93a.24.24,0,0,0,.33,0l.73-.74a3.71,3.71,0,0,0,0-5.26Zm-2.88,8.15L19.55,36.21c.16-.17.24-.29.21-.32l-5.34-5-.32.34a.26.26,0,0,1,.05-.09L30.58,14.67a.24.24,0,0,1,.33,0l4.92,4.93A.24.24,0,0,1,35.83,19.93ZM19.08,36.36l-4.93-4.93a.22.22,0,0,1-.05-.24,19.47,19.47,0,0,0-2,2.34h0l-1.52,6a.31.31,0,0,0,.38.37l6-1.51a18.79,18.79,0,0,0,2.56-2.17l-.14.15A.24.24,0,0,1,19.08,36.36Zm.68-.47-5.34-5-.32.34a.22.22,0,0,0,.05.24l4.93,4.93a.24.24,0,0,0,.33,0l.14-.15C19.71,36,19.79,35.92,19.76,35.89Z"/></g></g></svg>