<svg xmlns="http://www.w3.org/2000/svg" xmlns:xlink="http://www.w3.org/1999/xlink" viewBox="0 0 87.77 87.79"><defs><style>.cls-1{fill:#fff;}.cls-2{fill:url(#linear-gradient);}</style><linearGradient id="linear-gradient" x1="43.88" x2="43.88" y2="87.77" gradientUnits="userSpaceOnUse"><stop offset="0" stop-color="#a88beb"/><stop offset="0.73" stop-color="#f8ceec"/></linearGradient></defs><g id="Layer_2" data-name="Layer 2"><g id="Layer_1-2" data-name="Layer 1"><circle class="cls-1" cx="43.94" cy="45.46" r="42.33"/><path class="cls-2" d="M43.88,0A43.89,43.89,0,1,0,87.77,43.88,43.94,43.94,0,0,0,43.88,0Zm0,84A40.15,40.15,0,1,1,84,43.88,40.19,40.19,0,0,1,43.88,84ZM39.94,43.81h.64a6.4,6.4,0,0,0,6.4-6.4V32.2a6.4,6.4,0,0,0-6.4-6.4h-.64a6.4,6.4,0,0,0-6.4,6.4v5.21A6.39,6.39,0,0,0,39.94,43.81Zm9,4.69H31.61a6.4,6.4,0,0,0-6.4,6.4v3.45a21.69,21.69,0,0,0,30.1,0V54.9a6.4,6.4,0,0,0-6.4-6.4ZM62.8,23.34H60.07v7.23H52.85V33.3h7.22v7.22H62.8V33.3H70V30.57H62.8Z"/></g></g></svg>