<svg xmlns="http://www.w3.org/2000/svg" xmlns:xlink="http://www.w3.org/1999/xlink" viewBox="0 0 325 54.24"><defs><style>.cls-1{stroke-miterlimit:10;fill:url(#linear-gradient);stroke:url(#linear-gradient-2);}.cls-2{font-size:27.31px;fill:#fff;font-family:Rubik-ExtraBoldItalic, Rubik;font-weight:800;font-style:italic;}.cls-3{fill:url(#linear-gradient-3);}</style><linearGradient id="linear-gradient" x1="0.5" y1="27.12" x2="324.5" y2="27.12" gradientUnits="userSpaceOnUse"><stop offset="0.35" stop-color="#9795ef"/><stop offset="0.87" stop-color="#f9c5d1"/></linearGradient><linearGradient id="linear-gradient-2" x1="0" y1="27.12" x2="325" y2="27.12" xlink:href="#linear-gradient"/><linearGradient id="linear-gradient-3" x1="27.22" y1="48.08" x2="27.22" y2="6.22" gradientUnits="userSpaceOnUse"><stop offset="0.89" stop-color="#fff"/><stop offset="1" stop-color="#ffe2d9"/></linearGradient></defs><g id="Layer_2" data-name="Layer 2"><g id="Layer_1-2" data-name="Layer 1"><path class="cls-1" d="M298,.5H27a26.62,26.62,0,0,0,0,53.24H298A26.62,26.62,0,0,0,298,.5Z"/><text class="cls-2" transform="translate(112.41 33.24) scale(0.99 1)">sign up</text><path class="cls-3" d="M27.22,6.22A20.93,20.93,0,1,0,48,27.15,20.9,20.9,0,0,0,27.22,6.22Zm0,40.08A19.15,19.15,0,1,1,46.27,27.15,19.12,19.12,0,0,1,27.22,46.3ZM25.35,27.12h.31a3,3,0,0,0,3-3.06V21.58a3,3,0,0,0-3-3h-.31a3,3,0,0,0-3,3v2.48A3,3,0,0,0,25.35,27.12Zm4.26,2.23H21.4a3,3,0,0,0-3,3.06v1.64a10.24,10.24,0,0,0,14.28,0V32.41a3,3,0,0,0-3-3.06Zm6.59-12H34.9V20.8H31.48v1.3H34.9v3.45h1.3V22.1h3.43V20.8H36.2Z"/></g></g></svg>