<svg xmlns="http://www.w3.org/2000/svg" xmlns:xlink="http://www.w3.org/1999/xlink" viewBox="0 0 324.01 53.79"><defs><style>.cls-1{stroke-miterlimit:10;fill:url(#linear-gradient);stroke:url(#linear-gradient-2);}.cls-2{fill:#fff;}</style><linearGradient id="linear-gradient" x1="0.5" y1="26.9" x2="323.51" y2="26.9" gradientUnits="userSpaceOnUse"><stop offset="0.35" stop-color="#9795ef"/><stop offset="0.87" stop-color="#f9c5d1"/></linearGradient><linearGradient id="linear-gradient-2" x1="0" y1="26.9" x2="324.01" y2="26.9" xlink:href="#linear-gradient"/></defs><g id="Layer_2" data-name="Layer 2"><g id="Layer_1-2" data-name="Layer 1"><path class="cls-1" d="M297.11.5H26.9a26.4,26.4,0,1,0,0,52.79H297.11a26.4,26.4,0,1,0,0-52.79Z"/><path class="cls-2" d="M128,33a.55.55,0,0,1-.46-.21.57.57,0,0,1-.11-.5l3.79-17.82a.87.87,0,0,1,.3-.5.84.84,0,0,1,.54-.2h4a.58.58,0,0,1,.6.7l-3.82,17.82a.84.84,0,0,1-.3.5A.8.8,0,0,1,132,33Z"/><path class="cls-2" d="M142.79,33.24a9.09,9.09,0,0,1-3.79-.71,4.5,4.5,0,0,1-2.24-2.07,5.49,5.49,0,0,1-.42-3.29c.06-.38.13-.79.22-1.25a11.74,11.74,0,0,1,.32-1.24,9.27,9.27,0,0,1,1.63-3.3,6.79,6.79,0,0,1,2.8-2.06,10.84,10.84,0,0,1,4.11-.71,8.9,8.9,0,0,1,3.71.71,4.83,4.83,0,0,1,2.3,2.06,5.06,5.06,0,0,1,.46,3.3c-.07.38-.15.79-.25,1.24s-.18.87-.29,1.25a9.4,9.4,0,0,1-1.57,3.29A6.65,6.65,0,0,1,147,32.53,11,11,0,0,1,142.79,33.24Zm.54-3.82a1.9,1.9,0,0,0,1.52-.6,4.61,4.61,0,0,0,.84-1.78c.07-.28.15-.65.25-1.12s.18-.84.23-1.11a3.81,3.81,0,0,0-.06-1.77c-.16-.41-.57-.61-1.24-.61a1.86,1.86,0,0,0-1.5.61,4.29,4.29,0,0,0-.82,1.77c-.08.27-.17.65-.28,1.11s-.18.84-.21,1.12a4,4,0,0,0,.05,1.78C142.26,29.22,142.66,29.42,143.33,29.42Z"/><path class="cls-2" d="M158.88,38.92a9.24,9.24,0,0,1-3.47-.55A6.29,6.29,0,0,1,153.28,37a4.53,4.53,0,0,1-1-1.58,2.93,2.93,0,0,1-.22-1.2.84.84,0,0,1,.3-.5.82.82,0,0,1,.54-.21h4.39a.56.56,0,0,1,.41.14.83.83,0,0,1,.19.41,2.5,2.5,0,0,0,.21.48.89.89,0,0,0,.41.38,1.87,1.87,0,0,0,.81.14,2.25,2.25,0,0,0,1-.22,2.06,2.06,0,0,0,.78-.67,2.89,2.89,0,0,0,.48-1.22l.38-1.82a6.46,6.46,0,0,1-1.64,1,5.8,5.8,0,0,1-2.18.37,6.76,6.76,0,0,1-2.32-.37A3.72,3.72,0,0,1,154.19,31a4.09,4.09,0,0,1-.82-1.93,8.29,8.29,0,0,1,.06-2.79c.06-.27.1-.5.14-.7s.09-.43.16-.7a12.55,12.55,0,0,1,1-2.7,7.27,7.27,0,0,1,1.46-2A5.82,5.82,0,0,1,158.16,19a6.72,6.72,0,0,1,2.42-.42,5.22,5.22,0,0,1,2.41.53,3.58,3.58,0,0,1,1.52,1.37l.22-.92a.77.77,0,0,1,.31-.5.84.84,0,0,1,.55-.21h3.93a.52.52,0,0,1,.45.21.6.6,0,0,1,.09.5l-2.71,12.94a9.36,9.36,0,0,1-1,2.83,6.36,6.36,0,0,1-1.79,2A7.54,7.54,0,0,1,162,38.53,11.79,11.79,0,0,1,158.88,38.92Zm1.68-10.53a2.28,2.28,0,0,0,1.13-.27,2.19,2.19,0,0,0,.79-.72,3.72,3.72,0,0,0,.46-1c.05-.17.12-.43.19-.79s.12-.61.13-.76a2.82,2.82,0,0,0,0-1,1.15,1.15,0,0,0-.45-.72,1.61,1.61,0,0,0-1-.27,2.2,2.2,0,0,0-1.15.28,2.16,2.16,0,0,0-.77.79,4.13,4.13,0,0,0-.46,1.15,2.56,2.56,0,0,0-.15.54,5.78,5.78,0,0,0-.1.57,5,5,0,0,0,0,1.15,1.15,1.15,0,0,0,.38.79A1.58,1.58,0,0,0,160.56,28.39Z"/><path class="cls-2" d="M170.79,33a.55.55,0,0,1-.46-.21.6.6,0,0,1-.11-.5l2.68-12.67a.78.78,0,0,1,.32-.5.84.84,0,0,1,.55-.21h4a.55.55,0,0,1,.46.21.6.6,0,0,1,.11.5l-2.71,12.67a.84.84,0,0,1-.3.5.8.8,0,0,1-.54.21Zm3.41-15.85a.55.55,0,0,1-.46-.2.61.61,0,0,1-.1-.5l.59-2.84a.92.92,0,0,1,.31-.52.88.88,0,0,1,.56-.22H179a.53.53,0,0,1,.43.22.67.67,0,0,1,.11.52l-.63,2.84a.68.68,0,0,1-.28.5.86.86,0,0,1-.56.2Z"/><path class="cls-2" d="M179,33a.57.57,0,0,1-.47-.21.6.6,0,0,1-.1-.5l2.68-12.67a.77.77,0,0,1,.31-.5.86.86,0,0,1,.55-.21h3.93a.52.52,0,0,1,.45.21.6.6,0,0,1,.09.5l-.19,1a8.44,8.44,0,0,1,2-1.38,5.94,5.94,0,0,1,2.63-.57,5.1,5.1,0,0,1,2.72.68,3.65,3.65,0,0,1,1.55,2,6.6,6.6,0,0,1,0,3.41l-1.62,7.53a.84.84,0,0,1-.3.5.82.82,0,0,1-.54.21h-4.28a.54.54,0,0,1-.46-.21.57.57,0,0,1-.11-.5l1.54-7.34a2.2,2.2,0,0,0-.09-1.55,1.33,1.33,0,0,0-1.26-.53,2.31,2.31,0,0,0-1.56.54,2.71,2.71,0,0,0-.85,1.54l-1.57,7.34a.84.84,0,0,1-.3.5.8.8,0,0,1-.54.21Z"/></g></g></svg>