<svg xmlns="http://www.w3.org/2000/svg" xmlns:xlink="http://www.w3.org/1999/xlink" viewBox="0 0 64.15 64.15"><defs><style>.cls-1{fill:url(#linear-gradient);}</style><linearGradient id="linear-gradient" x1="7.14" y1="32.02" x2="57.1" y2="32.02" gradientUnits="userSpaceOnUse"><stop offset="0.25" stop-color="#f6ccec"/><stop offset="0.78" stop-color="#c9a7eb"/><stop offset="1" stop-color="#b48aff"/></linearGradient></defs><g id="Layer_2" data-name="Layer 2"><g id="Layer_1-2" data-name="Layer 1"><rect class="cls-1" x="7.14" y="7.04" width="49.97" height="49.97"/><path d="M17.32,0A17.31,17.31,0,0,0,0,17.32V46.83A17.31,17.31,0,0,0,17.32,64.15H46.83A17.31,17.31,0,0,0,64.15,46.83V17.32A17.31,17.31,0,0,0,46.83,0ZM25.9,17.82H38.25a1.78,1.78,0,0,1,1.48.79L41,21.38h5.34A3.57,3.57,0,0,1,49.9,25V42.77a3.56,3.56,0,0,1-3.57,3.56H17.82a3.56,3.56,0,0,1-3.56-3.56V25a3.56,3.56,0,0,1,3.56-3.57,1.78,1.78,0,0,1,3.56,0h1.79l1.25-2.77A1.78,1.78,0,0,1,25.9,17.82ZM32.8,25A8.91,8.91,0,1,0,41,33.13,8.91,8.91,0,0,0,32.8,25Zm11.75,0a1.78,1.78,0,1,0,1.78,1.78A1.78,1.78,0,0,0,44.55,25ZM31.38,28.56a5.35,5.35,0,1,1-4.61,4.6A5.35,5.35,0,0,1,31.38,28.56Z"/></g></g></svg>