<svg id="Layer_1" data-name="Layer 1" xmlns="http://www.w3.org/2000/svg" xmlns:xlink="http://www.w3.org/1999/xlink" viewBox="0 0 45 32"><defs><style>.cls-1{fill:#ca9aef;}.cls-2{fill:url(#linear-gradient);}</style><linearGradient id="linear-gradient" x1="22.49" y1="21.18" x2="22.49" y2="-14.08" gradientUnits="userSpaceOnUse"><stop offset="0" stop-color="#e0b0ff"/><stop offset="0.47" stop-color="#b58bff"/><stop offset="1" stop-color="#b48aff"/></linearGradient></defs><path class="cls-1" d="M42.38,21A10.29,10.29,0,0,1,45,27.86,10,10,0,0,1,35.24,38H9.76A10,10,0,0,1,0,27.86a10.32,10.32,0,0,1,2.35-6.59A9.71,9.71,0,0,1,7.53,18c.34-6,2.56-10.87,8.47-10.87A10.86,10.86,0,0,1,24.27,11a9.49,9.49,0,0,1,13,.62c1.65,1.69-.82,3.89-.61,6.27A9.57,9.57,0,0,1,42.38,21Z" transform="translate(0 -6)"/><path class="cls-2" d="M36.94,9.24a10.87,10.87,0,0,1,0,15.41L26,34.94a5.15,5.15,0,0,1-7.1,0L8,24.69A11,11,0,0,1,15.76,6c2.09,0,4.39,1,6.73,3.08C27,5.47,33.2,5.47,36.94,9.24Z" transform="translate(0 -6)"/></svg>