<svg xmlns="http://www.w3.org/2000/svg" xmlns:xlink="http://www.w3.org/1999/xlink" viewBox="0 0 35.37 45.38"><defs><style>.cls-1{fill:url(#linear-gradient);}</style><linearGradient id="linear-gradient" x1="17.68" x2="17.68" y2="45.38" gradientUnits="userSpaceOnUse"><stop offset="0.56" stop-color="#9795ef"/><stop offset="1" stop-color="#f9c5d1"/></linearGradient></defs><g id="Layer_2" data-name="Layer 2"><g id="Layer_1-2" data-name="Layer 1"><path class="cls-1" d="M17.31,21.16h.37a7.89,7.89,0,0,0,7.9-7.9V7.9A7.9,7.9,0,0,0,17.68,0h0a7.9,7.9,0,0,0-7.9,7.9v5.74A7.53,7.53,0,0,0,17.31,21.16Zm10.53,5.51H7.9A7.9,7.9,0,0,0,0,34.57v.79a6.28,6.28,0,0,0,2.56,5,25.5,25.5,0,0,0,30.25,0,6.31,6.31,0,0,0,2.56-5V34.19a7.53,7.53,0,0,0-7.53-7.52Z"/></g></g></svg>